<?xml version="1.0" encoding="iso-8859-1"?>
<!-- Generator: Adobe Illustrator 16.0.0, SVG Export Plug-In . SVG Version: 6.00 Build 0)  -->
<!DOCTYPE svg PUBLIC "-//W3C//DTD SVG 1.1//EN" "http://www.w3.org/Graphics/SVG/1.1/DTD/svg11.dtd">
<svg version="1.1" id="Capa_1" xmlns="http://www.w3.org/2000/svg" xmlns:xlink="http://www.w3.org/1999/xlink" x="0px" y="0px"
	 width="595.49px" height="595.49px" viewBox="0 0 595.49 595.49" style="enable-background:new 0 0 595.49 595.49;"
	 xml:space="preserve">
<g>
	<g>
		<path d="M293.95,33.564c28.938,0,52.39,23.455,52.39,52.389c0,28.929-23.451,52.389-52.39,52.389
			c-28.93,0-52.389-23.46-52.389-52.389C241.561,57.02,265.02,33.564,293.95,33.564L293.95,33.564z"/>
		<path d="M437.379,15.638l-0.763-0.327l-0.082-0.027l-9.641-4.066c-11.003-4.625-16.063,4.389-17.59,8.055l-25.195,64.923
			c-0.173,0.486-6.887,16.963-17.509,28.898l-33.817,37.965c-0.019,0.014-0.019,0.014-0.019,0.032
			c-8.812,9.885-19.298,11.103-23.114,11.185h-49.236c-11.548,0-17.636-5.265-19.726-7.546
			c-10.021-12.139-22.751-36.144-29.96-50.445c-5.202-10.062-1.881-17.427-0.504-19.771l35.398-57.377c0,0,0,0,0-0.009
			c8.014-12.97-3.489-19.444-3.489-19.444l-9.358-5.874c-0.009,0-0.009,0-0.027,0c-10.558-6.596-18.054,6.969-18.054,6.969
			l-44.707,77.334c-1.731,3.153-7.601,15.782,0.454,30.806l102.021,190.536c0.936,1.79,5.57,11.53-0.191,17.845l-63.728,69.498l0,0
			l-0.055,0.072l-2.83,3.071c-4.502,5.342-13.37,17.917-19.158,40.055v0.019l-36.007,137.487
			c-1.095,4.452-3.953,19.989,9.799,19.989h24.627c3.739-0.109,14.878-1.799,20.162-18.554v-0.018l27.885-107.396
			c0-0.019,0.009-0.036,0.027-0.055c4.998-19.244,15.255-30.347,19.099-33.985c0.418-0.382,0.936-0.863,1.372-1.272
			c0.055-0.045,0.218-0.182,0.218-0.182v-0.019c11.802-10.83,32.1-30.292,65.091-64.005v0.022c0,0,8.041-8.387,7.469-0.036
			c-4.161,66.526-30.737,171.982-40.941,210.634c-1.072,5.233-1.49,14.864,10.013,14.864h26.222
			c4.307-0.346,13.574-2.926,17.481-18.263c12.792-50.336,48.082-189.391,55.169-220.074c3.126-13.474,4.197-24.613,4.361-33.49
			c-0.409-16.473-8.322-36.157-8.322-36.157v-0.009l-6.633-13.292l-28.803-53.879c-8.123-15.205-2.525-24.618-0.6-27.171l0.527-0.69
			c0.027,0,0.081-0.086,0.081-0.086l50.073-64.469c11.303-14.601,17.881-31.673,17.917-31.728l20.916-55.183
			C450.5,22.975,440.396,16.987,437.379,15.638L437.379,15.638z"/>
	</g>
</g>
<g>
</g>
<g>
</g>
<g>
</g>
<g>
</g>
<g>
</g>
<g>
</g>
<g>
</g>
<g>
</g>
<g>
</g>
<g>
</g>
<g>
</g>
<g>
</g>
<g>
</g>
<g>
</g>
<g>
</g>
</svg>
